HIERARCHY
ROOT Hips
{
  OFFSET 0.000 81.429 0.000
  CHANNELS 6 Xposition Yposition Zposition Zrotation Xrotation Yrotation
  JOINT LeftUpLeg
  {
    OFFSET 6.115 1.239 2.010
    CHANNELS 6 Xposition Yposition Zposition Zrotation Xrotation Yrotation
    JOINT LeftLeg
    {
      OFFSET 0.000 -47.415 0.000
      CHANNELS 6 Xposition Yposition Zposition Zrotation Xrotation Yrotation
      JOINT LeftFoot
      {
        OFFSET 0.000 -35.254 0.000
        CHANNELS 6 Xposition Yposition Zposition Zrotation Xrotation Yrotation
        End Site
        {
          OFFSET 0.000 0.000 10.494
        }
      }
    }
  }
  JOINT RightUpLeg
  {
    OFFSET -6.115 1.239 2.010
    CHANNELS 6 Xposition Yposition Zposition Zrotation Xrotation Yrotation
    JOINT RightLeg
    {
      OFFSET 0.000 -47.415 0.000
      CHANNELS 6 Xposition Yposition Zposition Zrotation Xrotation Yrotation
      JOINT RightFoot
      {
        OFFSET 0.000 -35.254 0.000
        CHANNELS 6 Xposition Yposition Zposition Zrotation Xrotation Yrotation
        End Site
        {
          OFFSET 0.000 0.000 10.494
        }
      }
    }
  }
  JOINT Spine
  {
    OFFSET 0.000 25.036 0.000
    CHANNELS 6 Xposition Yposition Zposition Zrotation Xrotation Yrotation
    JOINT Spine1
    {
      OFFSET 0.000 25.000 0.000
      CHANNELS 6 Xposition Yposition Zposition Zrotation Xrotation Yrotation
      JOINT LeftShoulder
      {
        OFFSET 1.800 -0.600 0.200
        CHANNELS 6 Xposition Yposition Zposition Zrotation Xrotation Yrotation
        JOINT LeftArm
        {
          OFFSET 14.379 0.000 0.000
          CHANNELS 6 Xposition Yposition Zposition Zrotation Xrotation Yrotation
          JOINT LeftForeArm
          {
            OFFSET 29.029 0.000 0.000
            CHANNELS 6 Xposition Yposition Zposition Zrotation Xrotation Yrotation
            JOINT LeftHand
            {
              OFFSET 24.444 0.000 0.000
              CHANNELS 6 Xposition Yposition Zposition Zrotation Xrotation Yrotation
              JOINT LeftHandThumb1
              {
                OFFSET 4.877 -1.044 3.608
                CHANNELS 6 Xposition Yposition Zposition Zrotation Xrotation Yrotation
                JOINT LeftHandThumb2
                {
                  OFFSET 2.665 0.000 0.000
                  CHANNELS 6 Xposition Yposition Zposition Zrotation Xrotation Yrotation
                  JOINT LeftHandThumb3
                  {
                    OFFSET 2.543 -0.000 0.000
                    CHANNELS 6 Xposition Yposition Zposition Zrotation Xrotation Yrotation
                    End Site
                    {
                      OFFSET 2.667 0.000 -0.000
                    }
                  }
                }
              }
              JOINT LeftHandIndex1
              {
                OFFSET 9.232 -0.301 2.144
                CHANNELS 6 Xposition Yposition Zposition Zrotation Xrotation Yrotation
                JOINT LeftHandIndex2
                {
                  OFFSET 4.225 0.000 0.000
                  CHANNELS 6 Xposition Yposition Zposition Zrotation Xrotation Yrotation
                  JOINT LeftHandIndex3
                  {
                    OFFSET 2.654 0.000 0.000
                    CHANNELS 6 Xposition Yposition Zposition Zrotation Xrotation Yrotation
                    End Site
                    {
                      OFFSET 1.958 -0.000 0.000
                    }
                  }
                }
              }
              JOINT LeftHandMiddle1
              {
                OFFSET 8.920 -0.000 0.000
                CHANNELS 6 Xposition Yposition Zposition Zrotation Xrotation Yrotation
                JOINT LeftHandMiddle2
                {
                  OFFSET 4.863 -0.000 0.000
                  CHANNELS 6 Xposition Yposition Zposition Zrotation Xrotation Yrotation
                  JOINT LeftHandMiddle3
                  {
                    OFFSET 2.765 0.000 -0.000
                    CHANNELS 6 Xposition Yposition Zposition Zrotation Xrotation Yrotation
                    End Site
                    {
                      OFFSET 2.006 0.000 0.000
                    }
                  }
                }
              }
              JOINT LeftHandRing1
              {
                OFFSET 8.689 -0.126 -2.087
                CHANNELS 6 Xposition Yposition Zposition Zrotation Xrotation Yrotation
                JOINT LeftHandRing2
                {
                  OFFSET 4.538 -0.000 -0.000
                  CHANNELS 6 Xposition Yposition Zposition Zrotation Xrotation Yrotation
                  JOINT LeftHandRing3
                  {
                    OFFSET 2.305 0.000 0.000
                    CHANNELS 6 Xposition Yposition Zposition Zrotation Xrotation Yrotation
                    End Site
                    {
                      OFFSET 1.923 -0.000 -0.000
                    }
                  }
                }
              }
              JOINT LeftHandPinky1
              {
                OFFSET 8.391 -0.817 -3.758
                CHANNELS 6 Xposition Yposition Zposition Zrotation Xrotation Yrotation
                JOINT LeftHandPinky2
                {
                  OFFSET 3.044 0.000 -0.000
                  CHANNELS 6 Xposition Yposition Zposition Zrotation Xrotation Yrotation
                  JOINT LeftHandPinky3
                  {
                    OFFSET 1.975 0.000 0.000
                    CHANNELS 6 Xposition Yposition Zposition Zrotation Xrotation Yrotation
                    End Site
                    {
                      OFFSET 1.667 0.000 0.000
                    }
                  }
                }
              }
            }
          }
        }
      }
      JOINT RightShoulder
      {
        OFFSET -1.800 -0.600 0.200
        CHANNELS 6 Xposition Yposition Zposition Zrotation Xrotation Yrotation
        JOINT RightArm
        {
          OFFSET -14.379 0.000 0.000
          CHANNELS 6 Xposition Yposition Zposition Zrotation Xrotation Yrotation
          JOINT RightForeArm
          {
            OFFSET -29.029 0.000 0.000
            CHANNELS 6 Xposition Yposition Zposition Zrotation Xrotation Yrotation
            JOINT RightHand
            {
              OFFSET -24.444 0.000 0.000
              CHANNELS 6 Xposition Yposition Zposition Zrotation Xrotation Yrotation
              JOINT RightHandThumb1
              {
                OFFSET -4.877 -1.044 3.608
                CHANNELS 6 Xposition Yposition Zposition Zrotation Xrotation Yrotation
                JOINT RightHandThumb2
                {
                  OFFSET -2.665 -0.000 0.000
                  CHANNELS 6 Xposition Yposition Zposition Zrotation Xrotation Yrotation
                  JOINT RightHandThumb3
                  {
                    OFFSET -2.543 -0.000 0.000
                    CHANNELS 6 Xposition Yposition Zposition Zrotation Xrotation Yrotation
                    End Site
                    {
                      OFFSET -2.667 0.000 -0.000
                    }
                  }
                }
              }
              JOINT RightHandIndex1
              {
                OFFSET -9.232 -0.301 2.144
                CHANNELS 6 Xposition Yposition Zposition Zrotation Xrotation Yrotation
                JOINT RightHandIndex2
                {
                  OFFSET -4.225 -0.000 -0.000
                  CHANNELS 6 Xposition Yposition Zposition Zrotation Xrotation Yrotation
                  JOINT RightHandIndex3
                  {
                    OFFSET -2.654 0.000 0.000
                    CHANNELS 6 Xposition Yposition Zposition Zrotation Xrotation Yrotation
                    End Site
                    {
                      OFFSET -1.958 -0.000 -0.000
                    }
                  }
                }
              }
              JOINT RightHandMiddle1
              {
                OFFSET -8.920 -0.000 -0.000
                CHANNELS 6 Xposition Yposition Zposition Zrotation Xrotation Yrotation
                JOINT RightHandMiddle2
                {
                  OFFSET -4.863 -0.000 0.000
                  CHANNELS 6 Xposition Yposition Zposition Zrotation Xrotation Yrotation
                  JOINT RightHandMiddle3
                  {
                    OFFSET -2.765 -0.000 0.000
                    CHANNELS 6 Xposition Yposition Zposition Zrotation Xrotation Yrotation
                    End Site
                    {
                      OFFSET -2.006 0.000 -0.000
                    }
                  }
                }
              }
              JOINT RightHandRing1
              {
                OFFSET -8.689 -0.126 -2.087
                CHANNELS 6 Xposition Yposition Zposition Zrotation Xrotation Yrotation
                JOINT RightHandRing2
                {
                  OFFSET -4.538 -0.000 0.000
                  CHANNELS 6 Xposition Yposition Zposition Zrotation Xrotation Yrotation
                  JOINT RightHandRing3
                  {
                    OFFSET -2.305 0.000 -0.000
                    CHANNELS 6 Xposition Yposition Zposition Zrotation Xrotation Yrotation
                    End Site
                    {
                      OFFSET -1.923 0.000 -0.000
                    }
                  }
                }
              }
              JOINT RightHandPinky1
              {
                OFFSET -8.391 -0.817 -3.758
                CHANNELS 6 Xposition Yposition Zposition Zrotation Xrotation Yrotation
                JOINT RightHandPinky2
                {
                  OFFSET -3.044 -0.000 0.000
                  CHANNELS 6 Xposition Yposition Zposition Zrotation Xrotation Yrotation
                  JOINT RightHandPinky3
                  {
                    OFFSET -1.975 -0.000 -0.000
                    CHANNELS 6 Xposition Yposition Zposition Zrotation Xrotation Yrotation
                    End Site
                    {
                      OFFSET -1.667 -0.000 -0.000
                    }
                  }
                }
              }
            }
          }
        }
      }
      JOINT Neck
      {
        OFFSET 0.000 0.800 0.000
        CHANNELS 6 Xposition Yposition Zposition Zrotation Xrotation Yrotation
        JOINT Head
        {
          OFFSET 0.000 6.924 0.000
          CHANNELS 6 Xposition Yposition Zposition Zrotation Xrotation Yrotation
          End Site
          {
            OFFSET 0.000 13.245 0.000
          }
        }
      }
    }
  }
}
MOTION
Frames:	4
Frame Time:	0.033333
-61.56409 -3.49284 -226.04611 -35.70967 12.84903 -9.30327 7.40211 2.87707 2.43595 -139.56483 -71.88107 165.07866 -0.26144 -41.30774 0.63819 157.21381 -0.26983 -59.56736 0.93570 -30.19290 -0.57030 -13.50033 -56.58069 -16.41724 -6.92780 1.86105 2.51261 -87.60017 -66.01404 -111.89137 -0.65138 -37.63094 2.02041 -153.18062 73.65847 -178.79988 3.21165 -26.02238 -1.31837 2.93562 1.85196 19.20786 0.20519 24.69435 -0.12967 0.12491 1.51539 0.34258 0.26722 18.60026 -0.14132 -0.04212 2.19427 0.64069 2.13171 0.82735 0.02348 20.71680 -0.67870 -0.83449 20.61276 0.16993 -0.05270 -70.58514 12.24441 -10.71907 23.71946 -0.32359 0.36118 -131.68771 -0.13827 25.06282 6.27445 -3.79373 -0.98400 43.86222 -29.48539 -7.71824 4.87701 -1.04399 3.60799 -38.85152 -18.16611 4.01582 2.66501 0.00000 0.00000 -0.00000 0.00000 5.00000 2.54299 -0.00001 0.00000 0.00001 0.00000 60.00001 9.23201 -0.30100 2.14400 1.90807 0.00000 -0.00000 4.22500 0.00000 0.00000 1.89686 0.00000 -0.00000 2.65401 0.00000 0.00000 1.91928 0.00000 -0.00000 8.92001 -0.00001 0.00001 -80.00000 0.00000 0.00001 4.86299 -0.00001 0.00000 -90.00000 -0.00000 0.00000 2.76499 0.00000 -0.00001 -69.99999 -0.00000 0.00000 8.68901 -0.12600 -2.08700 -80.00000 0.00000 0.00001 4.53800 -0.00001 -0.00001 -90.00000 -0.00000 0.00000 2.30500 0.00000 0.00000 -69.99999 -0.00000 0.00000 8.39101 -0.81700 -3.75800 1.90807 0.00000 -0.00000 3.04400 0.00000 -0.00001 1.89686 0.00000 -0.00000 1.97500 0.00001 0.00000 1.91928 0.00000 -0.00000 -2.44073 -0.26909 0.09690 6.45302 0.21685 1.05780 -21.69146 -0.00239 0.13171 122.98681 -5.25321 85.10293 -29.70237 2.13989 0.43618 67.38413 -46.81938 13.95348 -22.86654 -1.45591 -0.62173 1.53425 11.63856 -2.70511 -4.87700 -1.04399 3.60799 24.66924 4.21298 9.07419 -2.66500 -0.00002 0.00001 0.00000 0.00000 -9.99449 -2.54302 -0.00002 0.00001 0.00000 0.00000 -15.00433 -9.23200 -0.30103 2.14400 20.00356 -0.00000 0.00001 -4.22499 -0.00000 -0.00000 25.00385 -0.00000 0.00001 -2.65400 0.00000 0.00000 29.90908 2.50346 4.32879 -8.92000 -0.00002 -0.00000 20.00356 -0.00000 0.00001 -4.86305 -0.00001 0.00000 25.00385 -0.00000 0.00001 -2.76501 -0.00002 0.00000 29.90908 2.50346 4.32879 -8.68900 -0.12603 -2.08700 20.00356 -0.00000 0.00001 -4.53799 -0.00000 0.00000 25.00385 -0.00000 0.00001 -2.30501 0.00000 -0.00000 29.90908 2.50346 4.32879 -8.39100 -0.81701 -3.75800 20.00356 -0.00000 0.00001 -3.04403 -0.00001 0.00001 25.00385 -0.00000 0.00001 -1.97499 -0.00005 -0.00000 29.90908 2.50346 4.32879 0.00627 0.63049 -0.00004 0.00001 0.00420 -0.00003 -0.03750 5.70890 0.08605 -23.30801 3.26682 16.38205 
-58.88061 -4.89150 -227.14638 -37.78934 10.79840 -9.26737 7.31299 3.13155 2.44663 -132.47052 -72.05515 172.04414 -0.28701 -42.92191 0.58648 157.44627 -3.06419 -57.14919 0.70511 -30.34680 -0.41036 -15.42917 -56.28191 -18.61038 -6.90635 1.38715 2.56501 -86.74606 -65.31293 -112.54027 -0.54165 -38.47673 1.60496 -114.04955 61.72626 139.72256 1.70039 -22.99893 -2.29349 8.45375 -12.72762 28.06617 0.23470 24.64777 -0.14683 0.31653 1.86089 -0.39331 0.32471 18.48670 -0.19367 -0.05237 2.29040 -0.21500 2.11628 0.84093 0.08211 21.11297 -1.15049 -2.14683 20.56133 0.16638 -0.02714 -71.77649 9.85187 -7.55207 24.14301 -0.29001 0.34853 -150.16156 -10.04907 23.84131 9.36800 -6.07368 -0.78831 37.06305 -30.48225 -18.05624 4.87701 -1.04399 3.60799 -38.85015 -18.17017 4.02105 2.66501 0.00000 0.00000 -0.00000 0.00000 5.00000 2.54299 -0.00001 0.00000 0.00001 0.00000 60.00001 9.23201 -0.30100 2.14400 1.94297 0.00000 -0.00000 4.22500 0.00000 0.00000 1.93602 0.00000 -0.00000 2.65401 0.00000 0.00000 1.94992 0.00000 -0.00000 8.92001 -0.00001 0.00001 -80.00000 0.00000 0.00001 4.86299 -0.00001 0.00000 -90.00000 -0.00000 0.00000 2.76499 0.00000 -0.00001 -69.99999 -0.00000 0.00000 8.68901 -0.12600 -2.08700 -80.00000 0.00000 0.00001 4.53800 -0.00001 -0.00001 -90.00000 -0.00000 0.00000 2.30500 0.00000 0.00000 -69.99999 -0.00000 0.00000 8.39101 -0.81700 -3.75800 1.94297 0.00000 -0.00000 3.04400 0.00000 -0.00001 1.93602 0.00000 -0.00000 1.97500 0.00001 0.00000 1.94992 0.00000 -0.00000 -2.43633 -0.33983 0.17212 8.13831 0.43930 2.37067 -21.51278 -0.01169 0.09266 112.44909 -7.95197 84.12594 -30.32999 1.39065 0.44902 59.02050 -46.28553 17.62390 -21.46607 -1.86198 0.63383 2.76490 9.40446 -2.18670 -4.87700 -1.04399 3.60799 24.66924 4.21298 9.07419 -2.66500 -0.00002 0.00001 0.00000 0.00000 -9.99449 -2.54302 -0.00002 0.00001 0.00000 0.00000 -15.00433 -9.23200 -0.30103 2.14400 20.00356 -0.00000 0.00001 -4.22499 -0.00000 -0.00000 25.00385 -0.00000 0.00001 -2.65400 0.00000 0.00000 29.90908 2.50346 4.32879 -8.92000 -0.00002 -0.00000 20.00356 -0.00000 0.00001 -4.86305 -0.00001 0.00000 25.00385 -0.00000 0.00001 -2.76501 -0.00002 0.00000 29.90908 2.50346 4.32879 -8.68900 -0.12603 -2.08700 20.00356 -0.00000 0.00001 -4.53799 -0.00000 0.00000 25.00385 -0.00000 0.00001 -2.30501 0.00000 -0.00000 29.90908 2.50346 4.32879 -8.39100 -0.81701 -3.75800 20.00356 -0.00000 0.00001 -3.04403 -0.00001 0.00001 25.00385 -0.00000 0.00001 -1.97499 -0.00005 -0.00000 29.90908 2.50346 4.32879 0.00627 0.62803 -0.00004 0.00001 0.00420 -0.00003 -0.05083 5.65437 0.09752 -23.36461 2.99800 18.85995 
-55.32543 -6.24731 -229.34061 -39.04323 9.41168 -10.39407 7.31328 3.38320 2.54493 -130.28842 -72.37640 174.54643 -0.32062 -43.95992 0.46552 157.54803 -5.58561 -54.65152 0.49889 -30.51829 -0.25981 -14.59796 -59.80016 -17.25930 -6.95284 0.93090 2.65885 -86.90198 -65.72051 -113.33651 -0.39422 -39.23619 1.18234 -88.67244 52.33257 118.16109 -0.08247 -21.72167 -1.34375 15.41163 -23.58290 33.29514 0.23558 24.60072 -0.15023 0.21487 1.97782 -0.41569 0.34701 18.48321 -0.25107 -0.08893 2.40337 -0.25335 2.10816 0.84682 0.12497 21.35449 -1.46509 -3.09740 20.54918 0.13804 -0.02208 -72.43934 8.95387 -5.40677 24.48260 -0.25245 0.32902 -163.15665 -17.03957 12.12888 14.41476 -7.18463 1.38096 40.80045 -26.32885 -17.01144 4.87701 -1.04399 3.60799 -38.84948 -18.17213 4.02439 2.66501 0.00000 0.00000 -0.00000 0.00000 5.00000 2.54299 -0.00001 0.00000 0.00001 0.00000 60.00001 9.23201 -0.30100 2.14400 1.96515 0.00000 -0.00000 4.22500 0.00000 0.00000 1.96090 0.00000 -0.00000 2.65401 0.00000 0.00000 1.96940 0.00000 -0.00000 8.92001 -0.00001 0.00001 -80.00000 0.00000 0.00001 4.86299 -0.00001 0.00000 -90.00000 -0.00000 0.00000 2.76499 0.00000 -0.00001 -69.99999 -0.00000 0.00000 8.68901 -0.12600 -2.08700 -80.00000 0.00000 0.00001 4.53800 -0.00001 -0.00001 -90.00000 -0.00000 0.00000 2.30500 0.00000 0.00000 -69.99999 -0.00000 0.00000 8.39101 -0.81700 -3.75800 1.96515 0.00000 -0.00000 3.04400 0.00000 -0.00001 1.96090 0.00000 -0.00000 1.97500 0.00001 0.00000 1.96940 0.00000 -0.00000 -2.43037 -0.39298 0.23167 9.30372 0.62240 3.26347 -21.39279 -0.01311 0.06469 104.30721 -9.81189 81.95929 -30.76815 0.99893 0.41094 57.64460 -48.62584 26.43983 -21.62638 -1.42138 1.06030 -20.81417 24.37914 1.28761 -4.87700 -1.04399 3.60799 24.66924 4.21298 9.07419 -2.66500 -0.00002 0.00001 0.00000 0.00000 -9.99449 -2.54302 -0.00002 0.00001 0.00000 0.00000 -15.00433 -9.23200 -0.30103 2.14400 20.00356 -0.00000 0.00001 -4.22499 -0.00000 -0.00000 25.00385 -0.00000 0.00001 -2.65400 0.00000 0.00000 29.90908 2.50346 4.32879 -8.92000 -0.00002 -0.00000 20.00356 -0.00000 0.00001 -4.86305 -0.00001 0.00000 25.00385 -0.00000 0.00001 -2.76501 -0.00002 0.00000 29.90908 2.50346 4.32879 -8.68900 -0.12603 -2.08700 20.00356 -0.00000 0.00001 -4.53799 -0.00000 0.00000 25.00385 -0.00000 0.00001 -2.30501 0.00000 -0.00000 29.90908 2.50346 4.32879 -8.39100 -0.81701 -3.75800 20.00356 -0.00000 0.00001 -3.04403 -0.00001 0.00001 25.00385 -0.00000 0.00001 -1.97499 -0.00005 -0.00000 29.90908 2.50346 4.32879 0.00627 0.62635 -0.00004 0.00001 0.00420 -0.00003 -0.08588 5.62570 0.13499 -25.85435 5.06907 26.42783 
-52.62907 -7.22573 -231.03415 -39.87117 8.51831 -11.73043 7.30723 3.49776 2.61742 -130.35234 -72.89497 174.40257 -0.30337 -44.56683 0.34704 157.50665 -7.27040 -52.50367 0.35393 -30.61258 -0.16590 -14.80139 -62.41669 -17.12425 -6.93331 0.71894 2.71037 -86.78180 -66.56857 -114.11379 -0.27941 -39.83662 0.86994 -75.74857 43.52689 108.29385 -1.24277 -22.72921 -0.53512 20.69756 -31.15232 36.12640 0.20773 24.53225 -0.13371 0.08846 2.05128 -0.20373 0.31726 18.46202 -0.25404 -0.13498 2.50459 -0.00552 2.10269 0.85082 0.15292 21.56721 -1.71741 -3.84273 20.47004 0.12157 0.02405 -73.00639 6.94940 -3.87575 24.74720 -0.18684 0.24294 174.55508 -21.73877 4.02568 19.15849 -7.13579 1.72790 31.92622 -18.39440 -11.44493 4.87701 -1.04399 3.60799 -38.84931 -18.17371 4.02622 2.66501 0.00000 0.00000 -0.00000 0.00000 5.00000 2.54299 -0.00001 0.00000 0.00001 0.00000 60.00001 9.23201 -0.30100 2.14400 1.97868 0.00000 -0.00000 4.22500 0.00000 0.00000 1.97608 0.00000 -0.00000 2.65401 0.00000 0.00000 1.98128 0.00000 -0.00000 8.92001 -0.00001 0.00001 -80.00000 0.00000 0.00001 4.86299 -0.00001 0.00000 -90.00000 -0.00000 0.00000 2.76499 0.00000 -0.00001 -69.99999 -0.00000 0.00000 8.68901 -0.12600 -2.08700 -80.00000 0.00000 0.00001 4.53800 -0.00001 -0.00001 -90.00000 -0.00000 0.00000 2.30500 0.00000 0.00000 -69.99999 -0.00000 0.00000 8.39101 -0.81700 -3.75800 1.97868 0.00000 -0.00000 3.04400 0.00000 -0.00001 1.97608 0.00000 -0.00000 1.97500 0.00001 0.00000 1.98128 0.00000 -0.00000 -2.41396 -0.42927 0.26288 10.13394 0.77647 3.93045 -21.28687 -0.01598 0.01819 93.66384 -10.30223 78.61836 -31.06753 0.82363 0.42720 62.21541 -49.98767 38.70564 -22.63380 -1.03628 1.21342 -15.46060 12.82263 -1.67472 -4.87700 -1.04399 3.60799 24.66924 4.21298 9.07419 -2.66500 -0.00002 0.00001 0.00000 0.00000 -9.99449 -2.54302 -0.00002 0.00001 0.00000 0.00000 -15.00433 -9.23200 -0.30103 2.14400 20.00356 -0.00000 0.00001 -4.22499 -0.00000 -0.00000 25.00385 -0.00000 0.00001 -2.65400 0.00000 0.00000 29.90908 2.50346 4.32879 -8.92000 -0.00002 -0.00000 20.00356 -0.00000 0.00001 -4.86305 -0.00001 0.00000 25.00385 -0.00000 0.00001 -2.76501 -0.00002 0.00000 29.90908 2.50346 4.32879 -8.68900 -0.12603 -2.08700 20.00356 -0.00000 0.00001 -4.53799 -0.00000 0.00000 25.00385 -0.00000 0.00001 -2.30501 0.00000 -0.00000 29.90908 2.50346 4.32879 -8.39100 -0.81701 -3.75800 20.00356 -0.00000 0.00001 -3.04403 -0.00001 0.00001 25.00385 -0.00000 0.00001 -1.97499 -0.00005 -0.00000 29.90908 2.50346 4.32879 0.00627 0.62566 -0.00004 0.00001 0.00420 -0.00003 -0.08629 5.60419 0.13179 -14.33804 7.80408 24.43765 
